<svg height="71.832" viewBox="0 0 76.578 71.832" width="76.578" xmlns="http://www.w3.org/2000/svg" xmlns:xlink="http://www.w3.org/1999/xlink"><linearGradient id="a" gradientUnits="objectBoundingBox" x1=".5" x2=".5" y2="1"><stop offset="0" stop-color="#60efff"/><stop offset=".117" stop-color="#5ff1f2"/><stop offset=".503" stop-color="#5ef6ca"/><stop offset=".811" stop-color="#5cf9b2"/><stop offset="1" stop-color="#5cfaa9"/></linearGradient><path d="m293.676 13889.277h26.566v25.527" fill="none" stroke="#193950" stroke-width="3" transform="translate(-245.163 -13887.778)"/><path d="m293.676 13914.8h26.566v-25.527" fill="none" stroke="#193950" stroke-width="3" transform="translate(-245.163 -13844.474)"/><path d="m320.242 13889.277h-26.566v25.527" fill="none" stroke="#193950" stroke-width="3" transform="translate(-292.176 -13887.778)"/><path d="m320.242 13914.8h-26.566v-25.527" fill="none" stroke="#193950" stroke-width="3" transform="translate(-292.176 -13844.474)"/><circle cx="16" cy="16" fill="url(#a)" r="16" transform="translate(23.754 22.19)"/><g fill="#19394f"><path d="m38.067 25.871-1.2 1.174a1.139 1.139 0 1 0 1.6 1.627l1.2-1.174a1.139 1.139 0 1 0 -1.6-1.627z" transform="translate(8.386 3.734)"/><path d="m25.957 37.735-1.2 1.17a1.139 1.139 0 1 0 1.593 1.629l1.2-1.17a1.139 1.139 0 0 0 -1.593-1.629z" transform="translate(6.697 5.39)"/><path d="m32.137 22.78a1.139 1.139 0 0 0 -1.137 1.139v1.673a1.139 1.139 0 1 0 2.279 0v-1.673a1.139 1.139 0 0 0 -1.142-1.139z" transform="translate(7.615 3.349)"/><path d="m32.137 39.733a1.139 1.139 0 0 0 -1.137 1.14v1.673a1.139 1.139 0 1 0 2.279 0v-1.673a1.139 1.139 0 0 0 -1.142-1.14z" transform="translate(7.615 5.714)"/><path d="m26.355 25.871a1.139 1.139 0 1 0 -1.6 1.627l1.2 1.174a1.139 1.139 0 0 0 1.6-1.627z" transform="translate(6.697 3.734)"/><path d="m38.465 37.734a1.14 1.14 0 0 0 -1.593 1.63l1.2 1.17a1.14 1.14 0 0 0 1.593-1.63z" transform="translate(8.386 5.39)"/><path d="m67.8 38.878a3.854 3.854 0 0 0 0-7.707c-.106 0-.206.023-.309.031-18.43-17.042-43.907-17.042-62.331-.002-.1-.008-.2-.031-.306-.031a3.854 3.854 0 0 0 0 7.707c.126 0 .245-.026.367-.037 9.2 8.481 20.145 12.728 31.1 12.728s21.909-4.25 31.1-12.728c.127.014.247.039.379.039zm1.575-3.854a1.575 1.575 0 1 1 -1.575-1.574 1.577 1.577 0 0 1 1.57 1.575zm-5.237-1.139h-11.391a16.452 16.452 0 0 0 -6.382-11.891 45.12 45.12 0 0 1 18.827 10.206 3.827 3.827 0 0 0 -1.059 1.685zm-27.816 15.326a14.2 14.2 0 0 1 -14.122-13.047h9.119a5.133 5.133 0 0 0 10.015 0h9.124a14.2 14.2 0 0 1 -14.136 13.047zm2.626-13.047a2.861 2.861 0 0 1 -5.252 0zm-5.248-2.279a2.861 2.861 0 0 1 5.252 0zm7.634 0a5.133 5.133 0 0 0 -10.015 0h-9.119a14.174 14.174 0 0 1 28.258 0zm-15.051-11.894a16.453 16.453 0 0 0 -6.383 11.894h-11.384a3.837 3.837 0 0 0 -1.062-1.685 45.126 45.126 0 0 1 18.829-10.209zm-23 13.034a1.575 1.575 0 1 1 1.571 1.575 1.577 1.577 0 0 1 -1.575-1.575zm5.237 1.139h11.38a16.452 16.452 0 0 0 6.238 11.789 45.113 45.113 0 0 1 -18.647-10.133 3.836 3.836 0 0 0 1.025-1.656zm37.972 11.793a16.442 16.442 0 0 0 6.258-11.793h11.383a3.843 3.843 0 0 0 1.023 1.654 45.113 45.113 0 0 1 -18.664 10.139z" transform="translate(3.43 2.741)"/></g></svg>