<svg height="71.832" viewBox="0 0 76.578 71.832" width="76.578" xmlns="http://www.w3.org/2000/svg" xmlns:xlink="http://www.w3.org/1999/xlink"><linearGradient id="a" gradientUnits="objectBoundingBox" x1=".5" x2=".5" y2="1"><stop offset="0" stop-color="#60efff"/><stop offset=".117" stop-color="#5ff1f2"/><stop offset=".503" stop-color="#5ef6ca"/><stop offset=".811" stop-color="#5cf9b2"/><stop offset="1" stop-color="#5cfaa9"/></linearGradient><g fill="none" stroke="#193950" stroke-width="3"><path d="m293.676 13889.277h26.566v25.527" transform="translate(-245.163 -13887.778)"/><path d="m293.676 13914.8h26.566v-25.527" transform="translate(-245.163 -13844.474)"/><path d="m320.242 13889.277h-26.566v25.527" transform="translate(-292.176 -13887.778)"/><path d="m320.242 13914.8h-26.566v-25.527" transform="translate(-292.176 -13844.474)"/></g><path d="m52.4 51.543c5.535-7.526 6.061-10.407 8.211-16.861.07-.572 4.4-6.572.834-9.157-1.261-13.97-10.688-23.783-21.475-23.783-10.4 0-20.322 7.247-21.633 24.353-2.9 2.6-.628 6.329.921 8.425 1.439 7.586 4.557 13.316 8.394 17.035 0 .001 10.065 12.291 24.748-.012zm-30.883-23.814c0-15.623 9.566-22.739 18.453-22.739 8.942 0 18.565 7.116 18.569 22.619-1.3 17.975-10.232 27.159-18.516 27.159s-17.218-9.184-18.506-27.039zm18.506 30.287c3.111 0 6.293-2.066 9.235-3.971l-18.465.006c2.94 1.901 6.121 3.965 9.23 3.965z" fill="#063a51" transform="translate(-1.723 7.335)"/><path d="m32.035 42.092a5.4 5.4 0 0 0 10.79 0l5.117-9.572a5.74 5.74 0 0 0 .025-11.19l-5.14-10.189a5.4 5.4 0 0 0 -10.793 0l-5.141 10.189a5.741 5.741 0 0 0 .025 11.19zm5.4-24.751a5.311 5.311 0 0 0 4.018-1.887l3.195 6.334a5.63 5.63 0 0 0 -2.867 3.49h-8.697a5.63 5.63 0 0 0 -2.868-3.49l3.195-6.334a5.312 5.312 0 0 0 4.019 1.887zm-4.351 11.223h8.693a5.633 5.633 0 0 0 2.824 3.47l-3.1 5.79a5.215 5.215 0 0 0 -8.15 0l-3.1-5.791a5.634 5.634 0 0 0 2.833-3.469zm4.346 15.414a2.417 2.417 0 1 1 2.3-2.41 2.362 2.362 0 0 1 -2.3 2.41zm11.84-17.057a2.307 2.307 0 1 1 -2.305-2.411 2.365 2.365 0 0 1 2.305 2.411zm-11.84-17.686a2.413 2.413 0 1 1 -2.305 2.411 2.362 2.362 0 0 1 2.305-2.411zm-11.839 17.686a2.307 2.307 0 1 1 2.3 2.416 2.362 2.362 0 0 1 -2.3-2.416z" fill="url(#a)" transform="translate(.872 9.736)"/></svg>