<svg height="56.762" viewBox="0 0 62 56.762" width="62" xmlns="http://www.w3.org/2000/svg" xmlns:xlink="http://www.w3.org/1999/xlink"><linearGradient id="a" gradientUnits="objectBoundingBox" x1=".5" x2=".5" y2="1"><stop offset="0" stop-color="#60efff"/><stop offset=".117" stop-color="#5ff1f2"/><stop offset=".503" stop-color="#5ef6ca"/><stop offset=".811" stop-color="#5cf9b2"/><stop offset="1" stop-color="#5cfaa9"/></linearGradient><path d="m322.615 3260.337v-2.18l-2.653-2.234-1.918-3.565-1.651-3.541-1.782-2.366-1.862-2.421s.759-3.466 2.234-3.28 2.079-.274 3.061.457 2.74 2.15 2.74 2.15v-15.789s.664-4.015 2.958-3.763 2.68 3.271 2.68 3.271v10.476l2.116-1.584 2.129.538.909 1.664 2.4-1.664 1.953.815 1.124 2.159 2.06-.527 1.515.527.87.665v8.408l-1.294 4.341-1.518 2.7-1.4 2.039-.713.527.476 3.031h-14.434z" fill="url(#a)" transform="translate(-307 -3205)"/><path d="m0 0h12v11h-12z" fill="url(#a)" transform="translate(38 7)"/><g fill="#19394f" transform="translate(-1 -3.619)"><path d="m57.116 6h-7.649a5.533 5.533 0 0 0 -9.1 0h-33.487a5.887 5.887 0 0 0 -5.88 5.885v39.344a5.887 5.887 0 0 0 5.88 5.88h8.367c.08.052.146.107.229.158v2.113a1 1 0 0 0 2 0v-2.692a1 1 0 0 0 -.524-.88c-2.81-1.518-3.451-3.477-4.193-5.744a10.5 10.5 0 0 0 -3.24-5.475l-.578-.473c-1.578-1.291-.851-2.527-.59-2.876a2.011 2.011 0 0 1 2.8-.507l3.269 2.238a1 1 0 0 0 1.565-.825v-16.737a1.652 1.652 0 1 1 3.3 0v14.164a1 1 0 0 0 2 0v-2.285a1.65 1.65 0 0 1 3.3 0v3.206a1 1 0 0 0 2 0v-2.378a1.65 1.65 0 1 1 3.3 0v2.946a1 1 0 0 0 2 0v-1.334a1.353 1.353 0 0 1 1.334-1.156 1.38 1.38 0 0 1 1.368 1.354v3.394c.014 4.011.026 7.8-4.44 12.694a1 1 0 0 0 -.262.674v2.692a1 1 0 0 0 2 0v-2.271h25.231a5.889 5.889 0 0 0 5.884-5.879v-39.345a5.889 5.889 0 0 0 -5.884-5.885zm-7.381 5.785a.13.13 0 0 1 .126.127v7.908a.129.129 0 0 1 -.126.126h-9.635a.126.126 0 0 1 -.123-.126v-7.904a.127.127 0 0 1 .123-.127h9.637zm-9.635 10.165h9.637a2.129 2.129 0 0 0 2.126-2.126v-5.071h4.074v14.122h-22.037v-14.122h4.074v5.071a2.127 2.127 0 0 0 2.126 2.126zm4.817-16.331a3.548 3.548 0 0 1 3.544 3.545v.625h-7.089v-.625a3.548 3.548 0 0 1 3.545-3.545zm-27.278 16.138a3.656 3.656 0 0 0 -3.651 3.652v3.373h-6.074v-14.122h15.833v14.122h-2.456v-3.373a3.657 3.657 0 0 0 -3.652-3.652zm43.361 29.472a3.886 3.886 0 0 1 -3.884 3.88h-23.663c3.166-4.488 3.153-8.339 3.142-11.792v-3.391a3.365 3.365 0 0 0 -3.368-3.354 3.325 3.325 0 0 0 -1.527.37 3.649 3.649 0 0 0 -5.726-1.685 3.649 3.649 0 0 0 -4.682-1.224v-3.251h3.456a1 1 0 0 0 1-1v-16.122a1 1 0 0 0 -1-1h-17.834a1 1 0 0 0 -1 1v16.122a1 1 0 0 0 1 1h7.073v9.469l-1.7-1.167a4.01 4.01 0 0 0 -5.534.958 3.927 3.927 0 0 0 .926 5.624l.578.473c1.524 1.245 2.024 2.775 2.6 4.548a13.251 13.251 0 0 0 2.136 4.423h-6.113a3.884 3.884 0 0 1 -3.88-3.881v-39.344a3.885 3.885 0 0 1 3.88-3.885h32.62a5.532 5.532 0 0 0 -.124 1.16v.762a2.123 2.123 0 0 0 -1.4 1.99v.837h-5.076a1 1 0 0 0 -1 1v16.126a1 1 0 0 0 1 1h24.036a1 1 0 0 0 1-1v-16.122a1 1 0 0 0 -1-1h-5.075v-.837a2.124 2.124 0 0 0 -1.4-1.991v-.761a5.532 5.532 0 0 0 -.124-1.164h6.779a3.887 3.887 0 0 1 3.884 3.885z"/><path d="m47.165 33.074h-5.476a1 1 0 0 0 -1 1v5.476a1 1 0 0 0 1 1h5.476a1 1 0 0 0 1-1v-5.476a1 1 0 0 0 -1-1zm-1 5.476h-3.476v-3.476h3.476z"/><path d="m57.13 33.074h-5.475a1 1 0 0 0 -1 1v5.476a1 1 0 0 0 1 1h5.475a1 1 0 0 0 1-1v-5.476a1 1 0 0 0 -1-1zm-1 5.476h-3.475v-3.476h3.475z"/><path d="m47.165 43.04h-5.476a1 1 0 0 0 -1 1v5.475a1 1 0 0 0 1 1h5.476a1 1 0 0 0 1-1v-5.475a1 1 0 0 0 -1-1zm-1 5.475h-3.476v-3.475h3.476z"/><path d="m57.13 43.04h-5.475a1 1 0 0 0 -1 1v5.475a1 1 0 0 0 1 1h5.475a1 1 0 0 0 1-1v-5.475a1 1 0 0 0 -1-1zm-1 5.475h-3.475v-3.475h3.475z"/><path d="m43.917 15.433v2.157a1 1 0 0 0 2 0v-2.155a.989.989 0 0 0 .52-.86 1 1 0 0 0 -1-1h-1.037a1 1 0 0 0 -1 1 .986.986 0 0 0 .517.858z"/></g></svg>