<svg height="803" viewBox="0 0 353 803" width="353" xmlns="http://www.w3.org/2000/svg"><g fill="#fff" opacity=".384" transform="translate(-1567 -150)"><path d="m0 0h53v107h-53z" transform="matrix(0 -1 1 0 1705 310)"/><path d="m0 0h53v107h-53z" transform="matrix(0 -1 1 0 1812 203)"/><path d="m0 0h53v55h-53z" transform="matrix(0 -1 1 0 1865 310)"/><path d="m0 0h53v55h-53z" transform="matrix(0 -1 1 0 1812 256)"/><path d="m0 0h53v55h-53z" transform="matrix(0 -1 1 0 1812 363)"/><path d="m0 0h53v107h-53z" transform="matrix(-1 0 0 -1 1866 524)"/><path d="m0 0h53v107h-53z" transform="matrix(-1 0 0 -1 1759 417)"/><path d="m0 0h53v55h-53z" transform="matrix(-1 0 0 -1 1866 364)"/><path d="m0 0h53v55h-53z" transform="matrix(-1 0 0 -1 1812 417)"/><path d="m0 0h53v55h-53z" transform="matrix(-1 0 0 -1 1919 417)"/><path d="m0 0h53v107h-53z" transform="matrix(-1 0 0 -1 1867 682)"/><path d="m0 0h53v107h-53z" transform="matrix(-1 0 0 -1 1760 575)"/><path d="m0 0h53v55h-53z" transform="matrix(-1 0 0 -1 1867 522)"/><path d="m0 0h53v55h-53z" transform="matrix(-1 0 0 -1 1813 575)"/><path d="m0 0h53v55h-53z" transform="matrix(-1 0 0 -1 1920 575)"/><path d="m0 0h53v107h-53z" transform="matrix(-1 0 0 -1 1727 790)"/><path d="m0 0h53v107h-53z" transform="matrix(-1 0 0 -1 1620 683)"/><path d="m0 0h53v55h-53z" transform="matrix(-1 0 0 -1 1727 630)"/><path d="m0 0h53v55h-53z" transform="matrix(-1 0 0 -1 1673 683)"/><path d="m0 0h53v55h-53z" transform="matrix(-1 0 0 -1 1780 683)"/><path d="m0 0h53v107h-53z" transform="matrix(-1 0 0 -1 1833 953)"/><path d="m0 0h53v107h-53z" transform="matrix(-1 0 0 -1 1726 846)"/><path d="m0 0h53v55h-53z" transform="matrix(-1 0 0 -1 1833 793)"/><path d="m0 0h53v55h-53z" transform="matrix(-1 0 0 -1 1779 846)"/><path d="m0 0h53v55h-53z" transform="matrix(-1 0 0 -1 1886 846)"/></g></svg>