<svg height="70.31" viewBox="0 0 73.578 70.31" width="73.578" xmlns="http://www.w3.org/2000/svg" xmlns:xlink="http://www.w3.org/1999/xlink"><linearGradient id="a" gradientUnits="objectBoundingBox" x1=".5" x2=".5" y2="1"><stop offset="0" stop-color="#60efff"/><stop offset=".117" stop-color="#5ff1f2"/><stop offset=".503" stop-color="#5ef6ca"/><stop offset=".811" stop-color="#5cf9b2"/><stop offset="1" stop-color="#5cfaa9"/></linearGradient><path d="m12.482 57.275.551-6.664 2.605-3.018 2.214-1.152v-1.867l-1.552-1.552v-2.971l2-2.272 2.745-.449 2.521 1.211 1.559 3.211-.965 2.348-1.355 1.868 2.317 1.966 2.371 1.9.67 2.863v4.577z" fill="url(#a)" transform="translate(1.144 4.15)"/><path d="m0 0h17.801v17.801h-17.801z" fill="url(#a)" transform="translate(45.097 42.723)"/><g fill="#063a51"><path d="m68.978 19.081h-19.619v-6.708a3.689 3.689 0 0 0 -3.684-3.685h-2.8v-5.124a1.186 1.186 0 0 0 -1.187-1.187h-7.795a1.186 1.186 0 0 0 -1.187 1.187v5.123h-2.806a3.689 3.689 0 0 0 -3.684 3.685v6.708h-19.616a5.607 5.607 0 0 0 -5.6 5.6v42.4a5.607 5.607 0 0 0 5.6 5.6h62.377a5.607 5.607 0 0 0 5.6-5.6v-42.4a5.607 5.607 0 0 0 -5.599-5.599zm-33.898-14.33h5.42v9.136h-5.42zm-6.49 7.622a1.313 1.313 0 0 1 1.31-1.312h2.806v2.826h-.227a1.187 1.187 0 1 0 0 2.374h10.616a1.187 1.187 0 1 0 0-2.374h-.223v-2.826h2.8a1.313 1.313 0 0 1 1.311 1.312v6.708h-18.393zm43.615 54.713a3.231 3.231 0 0 1 -3.228 3.228h-62.377a3.231 3.231 0 0 1 -3.228-3.228v-42.4a3.231 3.231 0 0 1 3.228-3.232h62.377a3.231 3.231 0 0 1 3.228 3.228v42.4z" transform="translate(-1 -2.377)"/><path d="m31.232 31.007h-19.761a3.536 3.536 0 0 0 -3.53 3.535v22.138a3.534 3.534 0 0 0 3.53 3.53h19.761a3.536 3.536 0 0 0 3.535-3.53v-22.138a3.538 3.538 0 0 0 -3.535-3.535zm-13.084 11.9a3.206 3.206 0 1 1 3.2 3.208 3.207 3.207 0 0 1 -3.201-3.204zm9.965 14.925h-13.523v-2.4a6.763 6.763 0 1 1 13.521 0zm4.281-1.157a1.16 1.16 0 0 1 -1.161 1.157h-.746v-2.4a9.338 9.338 0 0 0 -5.334-8.465 5.579 5.579 0 1 0 -7.6 0 9.338 9.338 0 0 0 -5.335 8.466v2.4h-.746a1.172 1.172 0 0 1 -1.157-1.157v-22.134a1.16 1.16 0 0 1 1.157-1.161h19.76a1.162 1.162 0 0 1 1.161 1.161v22.138z" transform="translate(.296 2.97)"/><path d="m20.933 23.812h26.706a1.187 1.187 0 1 0 0-2.374h-26.706a1.187 1.187 0 0 0 0 2.374z" transform="translate(2.501 1.183)"/><path d="m62.358 25.542h-51.322a1.187 1.187 0 0 0 0 2.374h51.322a1.187 1.187 0 0 0 0-2.374z" transform="translate(.653 1.949)"/><path d="m54.533 37.231h-4.577a1.186 1.186 0 0 0 -1.187 1.187v4.582a1.186 1.186 0 0 0 1.187 1.187h4.577a1.186 1.186 0 0 0 1.187-1.187v-4.582a1.186 1.186 0 0 0 -1.187-1.187zm-1.187 4.578h-2.2v-2.2h2.2z" transform="translate(7.921 4.132)"/><path d="m39.043 44.183h4.577a1.186 1.186 0 0 0 1.186-1.183v-4.582a1.186 1.186 0 0 0 -1.187-1.187h-4.576a1.186 1.186 0 0 0 -1.187 1.187v4.582a1.186 1.186 0 0 0 1.187 1.183zm1.187-4.583h2.2v2.2h-2.2z" transform="translate(5.883 4.132)"/><path d="m54.533 47.957h-4.577a1.186 1.186 0 0 0 -1.187 1.187v4.576a1.186 1.186 0 0 0 1.187 1.187h4.577a1.186 1.186 0 0 0 1.187-1.187v-4.576a1.186 1.186 0 0 0 -1.187-1.187zm-1.187 4.577h-2.2v-2.2h2.2z" transform="translate(7.921 6.135)"/><path d="m43.62 47.957h-4.577a1.186 1.186 0 0 0 -1.187 1.187v4.576a1.186 1.186 0 0 0 1.187 1.187h4.577a1.186 1.186 0 0 0 1.187-1.187v-4.576a1.186 1.186 0 0 0 -1.187-1.187zm-1.187 4.577h-2.2v-2.2h2.2z" transform="translate(5.883 6.135)"/><path d="m43.864 44.524h-5.019a1.187 1.187 0 1 0 0 2.374h5.019a1.187 1.187 0 0 0 0-2.374z" transform="translate(5.846 5.494)"/><path d="m46.428 50.123a1.186 1.186 0 0 0 -1.187 1.187v2.351a1.187 1.187 0 1 0 2.374 0v-2.351a1.186 1.186 0 0 0 -1.187-1.187z" transform="translate(7.262 6.54)"/><path d="m54.45 44.524h-4.05a1.187 1.187 0 1 0 0 2.374h4.05a1.187 1.187 0 0 0 0-2.374z" transform="translate(8.004 5.494)"/><path d="m46.428 36.941a1.186 1.186 0 0 0 -1.187 1.187v5.572a1.187 1.187 0 0 0 2.374 0v-5.572a1.186 1.186 0 0 0 -1.187-1.187z" transform="translate(7.262 4.078)"/><path d="m46.428 45.018a1.186 1.186 0 0 0 -1.187 1.182v1.92a1.187 1.187 0 0 0 2.374 0v-1.92a1.186 1.186 0 0 0 -1.187-1.182z" transform="translate(7.262 5.586)"/></g></svg>