<svg height="71.832" viewBox="0 0 76.578 71.832" width="76.578" xmlns="http://www.w3.org/2000/svg" xmlns:xlink="http://www.w3.org/1999/xlink"><linearGradient id="a" gradientUnits="objectBoundingBox" x1=".5" x2=".5" y2="1"><stop offset="0" stop-color="#60efff"/><stop offset=".117" stop-color="#5ff1f2"/><stop offset=".503" stop-color="#5ef6ca"/><stop offset=".811" stop-color="#5cf9b2"/><stop offset="1" stop-color="#5cfaa9"/></linearGradient><path d="m293.676 13889.277h26.566v25.527" fill="none" stroke="#193950" stroke-width="3" transform="translate(-245.163 -13887.777)"/><path d="m293.676 13914.8h26.566v-25.527" fill="none" stroke="#193950" stroke-width="3" transform="translate(-245.163 -13844.473)"/><path d="m320.242 13889.277h-26.566v25.527" fill="none" stroke="#193950" stroke-width="3" transform="translate(-292.176 -13887.777)"/><path d="m320.242 13914.8h-26.566v-25.527" fill="none" stroke="#193950" stroke-width="3" transform="translate(-292.176 -13844.473)"/><path d="m59.344 34.169h-4.8v-13.813c0-4.313-4.578-5.726-7.382-4.006v-2.65c0-4.313-4.578-5.725-7.386-4v-.436a4.768 4.768 0 0 0 -9.457-.831c-2.8-1.778-7.447-.375-7.447 3.967v9.815c-3.3-2.473-9.26-.872-9.26 4.506v7.449h-4.8c-.47-1.677-.47 3.811 0 2.134h4.8v4.307a20.386 20.386 0 0 0 9.834 17.46 22.882 22.882 0 0 0 23.351-1.454 20.391 20.391 0 0 0 7.743-16.006v-4.311h4.8c.475 1.68.475-3.808.004-2.131zm-31.716-24.369a2.477 2.477 0 0 1 2.626 2.6v16.99a1.067 1.067 0 1 0 2.134 0v-20.126a2.625 2.625 0 0 1 5.249 0v20.385a1.067 1.067 0 1 0 2.134 0v-15.949a2.626 2.626 0 0 1 5.252 0v17.172a1.067 1.067 0 1 0 2.134 0v-10.516a2.624 2.624 0 0 1 5.248 0v13.813h-27.405v-7.448c0-.005 0-.01 0-.016v-14.305a2.477 2.477 0 0 1 2.628-2.6zm-11.886 16.921a3.361 3.361 0 0 1 3.563-3.521 3.361 3.361 0 0 1 3.562 3.525v.016 7.433h-7.125zm36.665 13.89a18.238 18.238 0 0 1 -6.88 14.289 20.532 20.532 0 0 1 -11.591 3.564 20.772 20.772 0 0 1 -9.436-2.246 18.242 18.242 0 0 1 -8.757-15.607v-4.311h7.129v.181a1.067 1.067 0 1 0 2.134 0v-.181h27.4z" fill="#063a51" transform="translate(4.213 3.351)"/><g fill="url(#a)"><g transform="translate(23.209 -2.761)"><path d="m24.274 17.9a2 2 0 0 0 -2.584 1.411 1.191 1.191 0 0 1 -.6.776.231.231 0 0 0 .2.417 1.626 1.626 0 0 0 .841-1.04 1.545 1.545 0 0 1 2-1.127 1.835 1.835 0 0 1 1.035 2.457l-.174.521a.231.231 0 1 0 .438.147l.174-.522a2.281 2.281 0 0 0 -1.33-3.04z"/><path d="m23.975 23.125.016-.031a.908.908 0 0 0 .024-.922.63.63 0 0 0 -.568-.285.831.831 0 0 0 -.677.514c-.073.15-.126.279-.176.4a3.152 3.152 0 0 1 -.24.5 2.466 2.466 0 0 1 -1.2 1.077.231.231 0 1 0 .166.431 2.945 2.945 0 0 0 1.424-1.264 3.528 3.528 0 0 0 .274-.563c.047-.113.1-.234.164-.374a.4.4 0 0 1 .29-.255.167.167 0 0 1 .153.077.482.482 0 0 1 -.048.458l-.016.031a4.778 4.778 0 0 1 -2.247 2.473.231.231 0 0 0 .165.431 5.159 5.159 0 0 0 2.496-2.698z" transform="translate(-.042 -3.15)"/><path d="m31.766 33.938a.231.231 0 0 0 .048.459 1.8 1.8 0 0 1 1.623.83.231.231 0 0 0 .371-.275 2.236 2.236 0 0 0 -2.042-1.014z" transform="translate(-8.157 -12.412)"/><path d="m26.075 37.641a2.212 2.212 0 0 0 -1.807.881.231.231 0 0 0 .353.3 1.791 1.791 0 0 1 1.43-.718 1.607 1.607 0 0 1 1.229.75.231.231 0 0 0 .383-.257 2.063 2.063 0 0 0 -1.588-.956z" transform="translate(-2.506 -15.266)"/><path d="m28.369 41.552a1.207 1.207 0 0 0 -.956.554.231.231 0 0 0 .378.265.749.749 0 0 1 .591-.357.856.856 0 0 1 .694.376.231.231 0 0 0 .362-.286 1.31 1.31 0 0 0 -1.069-.552z" transform="translate(-4.935 -18.276)"/><path d="m34.267 26.4a.231.231 0 0 0 .324-.04 2.023 2.023 0 0 0 .46-1.534.231.231 0 0 0 -.231-.23.231.231 0 0 0 -.23.232 1.576 1.576 0 0 1 -.363 1.248.231.231 0 0 0 .04.324z" transform="translate(-10.171 -5.232)"/></g><path d="m22.482 17.9a2.065 2.065 0 0 1 2.664 1.454 1.228 1.228 0 0 0 .621.8.238.238 0 0 1 -.2.43 1.676 1.676 0 0 1 -.867-1.072 1.593 1.593 0 0 0 -2.06-1.162 1.892 1.892 0 0 0 -1.066 2.533l.18.537a.238.238 0 1 1 -.451.151l-.18-.538a2.351 2.351 0 0 1 1.359-3.133z" transform="translate(15.86 -7.227)"/><path d="m21.169 23.163-.016-.032a.936.936 0 0 1 -.025-.951.649.649 0 0 1 .586-.294.857.857 0 0 1 .7.53c.075.155.13.288.181.413a3.249 3.249 0 0 0 .247.511 2.542 2.542 0 0 0 1.234 1.11.238.238 0 1 1 -.171.444 3.036 3.036 0 0 1 -1.468-1.3 3.637 3.637 0 0 1 -.282-.58c-.048-.117-.1-.241-.169-.385a.409.409 0 0 0 -.3-.263.172.172 0 0 0 -.158.079.5.5 0 0 0 .049.472l.016.032a4.925 4.925 0 0 0 2.316 2.55.238.238 0 0 1 -.171.444 5.318 5.318 0 0 1 -2.569-2.78z" transform="translate(17.524 -10.348)"/><path d="m33.71 33.938a.238.238 0 0 1 -.049.473 1.859 1.859 0 0 0 -1.673.856.238.238 0 0 1 -.382-.283 2.3 2.3 0 0 1 2.104-1.046z" transform="translate(5.317 -19.525)"/><path d="m25.889 37.641a2.28 2.28 0 0 1 1.863.908.238.238 0 0 1 -.363.307 1.846 1.846 0 0 0 -1.474-.74 1.656 1.656 0 0 0 -1.267.773.238.238 0 0 1 -.4-.265 2.127 2.127 0 0 1 1.641-.983z" transform="translate(13.179 -22.352)"/><path d="m28.524 41.552a1.244 1.244 0 0 1 .985.571.238.238 0 0 1 -.389.273.772.772 0 0 0 -.609-.368.883.883 0 0 0 -.715.387.238.238 0 1 1 -.374-.295 1.351 1.351 0 0 1 1.102-.568z" transform="translate(10.683 -25.335)"/><path d="m34.986 26.452a.238.238 0 0 1 -.334-.041 2.086 2.086 0 0 1 -.475-1.581.238.238 0 0 1 .238-.237.238.238 0 0 1 .237.239 1.624 1.624 0 0 0 .374 1.286.238.238 0 0 1 -.04.334z" transform="translate(3.539 -12.411)"/><path d="m22.431 17.9a2 2 0 0 1 2.574 1.4 1.187 1.187 0 0 0 .6.773.23.23 0 0 1 -.2.416 1.62 1.62 0 0 1 -.838-1.036 1.54 1.54 0 0 0 -1.991-1.123 1.829 1.829 0 0 0 -1.031 2.449l.174.519a.23.23 0 1 1 -.436.146l-.174-.52a2.273 2.273 0 0 1 1.322-3.024z" transform="translate(30.767 3.649)"/><path d="m21.163 23.121-.016-.031a.9.9 0 0 1 -.024-.919.628.628 0 0 1 .566-.284.828.828 0 0 1 .674.512c.073.15.126.278.175.4a3.14 3.14 0 0 0 .239.494 2.457 2.457 0 0 0 1.193 1.073.23.23 0 1 1 -.166.429 2.934 2.934 0 0 1 -1.419-1.26 3.516 3.516 0 0 1 -.273-.561c-.047-.113-.1-.233-.164-.372a.4.4 0 0 0 -.289-.254.166.166 0 0 0 -.152.076.48.48 0 0 0 .047.456l.016.031a4.76 4.76 0 0 0 2.238 2.464.23.23 0 0 1 -.165.429 5.14 5.14 0 0 1 -2.48-2.683z" transform="translate(32.374 .495)"/><path d="m33.638 33.938a.23.23 0 0 1 -.048.457 1.8 1.8 0 0 0 -1.617.827.23.23 0 0 1 -.37-.274 2.228 2.228 0 0 1 2.035-1.01z" transform="translate(20.222 -8.777)"/><path d="m25.833 37.641a2.2 2.2 0 0 1 1.8.878.23.23 0 0 1 -.351.3 1.785 1.785 0 0 0 -1.425-.715 1.6 1.6 0 0 0 -1.225.747.23.23 0 0 1 -.382-.256 2.056 2.056 0 0 1 1.583-.954z" transform="translate(28.067 -11.634)"/><path d="m28.486 41.552a1.2 1.2 0 0 1 .952.552.23.23 0 0 1 -.376.264.746.746 0 0 0 -.589-.356.853.853 0 0 0 -.691.374.23.23 0 1 1 -.361-.285 1.306 1.306 0 0 1 1.065-.549z" transform="translate(25.549 -14.647)"/><path d="m34.959 26.389a.23.23 0 0 1 -.323-.04 2.016 2.016 0 0 1 -.459-1.528.23.23 0 0 1 .23-.229.23.23 0 0 1 .229.231 1.57 1.57 0 0 0 .364 1.244.23.23 0 0 1 -.041.322z" transform="translate(18.416 -1.589)"/><path d="m22.482 17.9a2.065 2.065 0 0 1 2.664 1.454 1.228 1.228 0 0 0 .621.8.238.238 0 0 1 -.2.43 1.676 1.676 0 0 1 -.867-1.072 1.593 1.593 0 0 0 -2.06-1.162 1.892 1.892 0 0 0 -1.066 2.533l.18.537a.238.238 0 1 1 -.451.151l-.18-.538a2.351 2.351 0 0 1 1.359-3.133z" transform="translate(8.511 -4.227)"/><path d="m21.169 23.163-.016-.032a.936.936 0 0 1 -.025-.951.649.649 0 0 1 .586-.294.857.857 0 0 1 .7.53c.075.155.13.288.181.413a3.249 3.249 0 0 0 .247.511 2.542 2.542 0 0 0 1.234 1.11.238.238 0 1 1 -.171.444 3.036 3.036 0 0 1 -1.468-1.3 3.637 3.637 0 0 1 -.282-.58c-.048-.117-.1-.241-.169-.385a.409.409 0 0 0 -.3-.263.172.172 0 0 0 -.158.079.5.5 0 0 0 .049.472l.016.032a4.925 4.925 0 0 0 2.316 2.55.238.238 0 0 1 -.171.444 5.318 5.318 0 0 1 -2.569-2.78z" transform="translate(10.175 -7.348)"/><path d="m33.71 33.938a.238.238 0 0 1 -.049.473 1.859 1.859 0 0 0 -1.673.856.238.238 0 0 1 -.382-.283 2.3 2.3 0 0 1 2.104-1.046z" transform="translate(-2.032 -16.525)"/><path d="m25.889 37.641a2.28 2.28 0 0 1 1.863.908.238.238 0 0 1 -.363.307 1.846 1.846 0 0 0 -1.474-.74 1.656 1.656 0 0 0 -1.267.773.238.238 0 0 1 -.4-.265 2.127 2.127 0 0 1 1.641-.983z" transform="translate(5.83 -19.352)"/><path d="m28.524 41.552a1.244 1.244 0 0 1 .985.571.238.238 0 0 1 -.389.273.772.772 0 0 0 -.609-.368.883.883 0 0 0 -.715.387.238.238 0 1 1 -.374-.295 1.351 1.351 0 0 1 1.102-.568z" transform="translate(3.334 -22.335)"/><path d="m34.986 26.452a.238.238 0 0 1 -.334-.041 2.086 2.086 0 0 1 -.475-1.581.238.238 0 0 1 .238-.237.238.238 0 0 1 .237.239 1.624 1.624 0 0 0 .374 1.286.238.238 0 0 1 -.04.334z" transform="translate(-3.81 -9.411)"/><path d="m23.046 17.943a2.828 2.828 0 0 1 3.648 1.992 1.682 1.682 0 0 0 .851 1.1.326.326 0 0 1 -.279.589 2.3 2.3 0 0 1 -1.187-1.469 2.182 2.182 0 0 0 -2.822-1.591 2.592 2.592 0 0 0 -1.461 3.47l.246.736a.326.326 0 1 1 -.618.207l-.246-.736a3.221 3.221 0 0 1 1.868-4.298z" transform="translate(-.764 9.07)"/><path d="m21.227 23.636-.023-.044a1.282 1.282 0 0 1 -.034-1.3.889.889 0 0 1 .8-.4 1.174 1.174 0 0 1 .955.726c.1.212.178.394.249.565a4.45 4.45 0 0 0 .338.7 3.481 3.481 0 0 0 1.691 1.52.326.326 0 1 1 -.235.608 4.158 4.158 0 0 1 -2.01-1.785 4.982 4.982 0 0 1 -.387-.795c-.066-.16-.136-.33-.232-.528a.561.561 0 0 0 -.41-.361.235.235 0 0 0 -.216.108.68.68 0 0 0 .067.647l.022.044c.548 1.061 1.466 2.837 3.172 3.492a.326.326 0 0 1 -.234.609c-1.933-.749-2.922-2.663-3.513-3.806z" transform="translate(1.536 6.309)"/><path d="m34.505 33.942a.326.326 0 0 1 -.067.648 2.546 2.546 0 0 0 -2.291 1.172.326.326 0 0 1 -.524-.388 3.157 3.157 0 0 1 2.882-1.432z" transform="translate(-11.285 -1.808)"/><path d="m26.509 37.642a3.123 3.123 0 0 1 2.552 1.244.326.326 0 0 1 -.5.421 2.529 2.529 0 0 0 -2.019-1.014 2.269 2.269 0 0 0 -1.735 1.059.326.326 0 0 1 -.541-.363 2.913 2.913 0 0 1 2.243-1.347z" transform="translate(-3.232 -4.31)"/><path d="m28.951 41.552a1.7 1.7 0 0 1 1.35.782.326.326 0 0 1 -.533.374 1.058 1.058 0 0 0 -.834-.5 1.209 1.209 0 0 0 -.98.53.326.326 0 1 1 -.512-.4 1.85 1.85 0 0 1 1.509-.786z" transform="translate(-5.482 -6.948)"/><path d="m35.285 27.139a.326.326 0 0 1 -.457-.056 2.857 2.857 0 0 1 -.65-2.166.326.326 0 0 1 .326-.324.326.326 0 0 1 .325.327 2.225 2.225 0 0 0 .512 1.762.326.326 0 0 1 -.056.457z" transform="translate(-12.752 4.484)"/><path d="m0 0h52v3h-52z" transform="translate(11.754 37.191)"/><path d="m1391.5 9a4.5 4.5 0 1 1 4.5-4.5 4.505 4.505 0 0 1 -4.5 4.5zm0-7a2.5 2.5 0 1 0 2.5 2.5 2.5 2.5 0 0 0 -2.5-2.5z" transform="translate(-1382.246 34.191)"/><path d="m1391.5 9a4.5 4.5 0 1 1 4.5-4.5 4.505 4.505 0 0 1 -4.5 4.5zm0-7a2.5 2.5 0 1 0 2.5 2.5 2.5 2.5 0 0 0 -2.5-2.5z" transform="translate(-1324.246 34.191)"/></g></svg>