<svg height="71.832" viewBox="0 0 76.578 71.832" width="76.578" xmlns="http://www.w3.org/2000/svg" xmlns:xlink="http://www.w3.org/1999/xlink"><linearGradient id="a" gradientUnits="objectBoundingBox" x1=".838" x2=".162" y1="1.025" y2="-.055"><stop offset="0" stop-color="#60efff"/><stop offset=".117" stop-color="#5ff1f2"/><stop offset=".503" stop-color="#5ef6ca"/><stop offset=".811" stop-color="#5cf9b2"/><stop offset="1" stop-color="#5cfaa9"/></linearGradient><g fill="none" stroke="#193950" stroke-width="3"><path d="m293.676 13889.277h26.566v25.527" transform="translate(-245.163 -13887.777)"/><path d="m293.676 13914.8h26.566v-25.527" transform="translate(-245.163 -13844.473)"/><path d="m320.242 13889.277h-26.566v25.527" transform="translate(-292.176 -13887.777)"/><path d="m320.242 13914.8h-26.566v-25.527" transform="translate(-292.176 -13844.473)"/></g><path d="m46.268 34.667a8.542 8.542 0 0 0 -3.527.843 22.685 22.685 0 0 1 -18.634 0 8.542 8.542 0 0 0 -3.527-.843 9.913 9.913 0 0 0 -9.913 9.914v7.155h45.514v-7.156a9.913 9.913 0 0 0 -9.913-9.913z" fill="url(#a)" transform="translate(4.832 12.296)"/><path d="m33.068 34.136a17.068 17.068 0 1 1 17.068-17.068 17.068 17.068 0 0 1 -17.068 17.068zm0-28.446a11.379 11.379 0 1 0 11.378 11.378 11.379 11.379 0 0 0 -11.378-11.379z" fill="#063a51" transform="translate(5.188 9.982)"/><path d="m8 51.912v-7.154a12.772 12.772 0 0 1 12.758-12.758 11.37 11.37 0 0 1 4.7 1.1 19.935 19.935 0 0 0 16.28 0 11.381 11.381 0 0 1 4.7-1.1 12.772 12.772 0 0 1 12.762 12.758s.15 2.639 0 7.155zm12.758-14.223a7.077 7.077 0 0 0 -7.069 7.069v7.155h39.825v-7.155a7.077 7.077 0 0 0 -7.069-7.069 5.724 5.724 0 0 0 -2.35.588 25.641 25.641 0 0 1 -20.989 0 5.713 5.713 0 0 0 -2.348-.588z" fill="#063a51" transform="translate(4.654 12.118)"/></svg>