<svg height="71.832" viewBox="0 0 76.578 71.832" width="76.578" xmlns="http://www.w3.org/2000/svg" xmlns:xlink="http://www.w3.org/1999/xlink"><linearGradient id="a" gradientUnits="objectBoundingBox" x1=".5" x2=".5" y2="1"><stop offset="0" stop-color="#60efff"/><stop offset=".117" stop-color="#5ff1f2"/><stop offset=".503" stop-color="#5ef6ca"/><stop offset=".811" stop-color="#5cf9b2"/><stop offset="1" stop-color="#5cfaa9"/></linearGradient><g fill="none" stroke="#193950" stroke-width="3"><path d="m293.676 13889.277h26.566v25.527" transform="translate(-245.163 -13887.777)"/><path d="m293.676 13914.8h26.566v-25.527" transform="translate(-245.163 -13844.473)"/><path d="m320.242 13889.277h-26.566v25.527" transform="translate(-292.176 -13887.777)"/><path d="m320.242 13914.8h-26.566v-25.527" transform="translate(-292.176 -13844.473)"/></g><g transform="translate(30.167 7.332)"><path d="m57.335 17.035a23.548 23.548 0 0 1 -7.964-1.61l-10.112-4.7 1.884-2.575a2.433 2.433 0 0 0 -.527-3.387l-4.508-3.3a2.427 2.427 0 0 0 -3.383.525l-4.439 6.07-6.909-.217h-.077c-5.146 0-7.245 2.57-9.268 5.669l-8.973 13.549a5.174 5.174 0 0 0 -.917 5.28 5.957 5.957 0 0 0 5.407 3.483 5.415 5.415 0 0 0 1.222-.14l-1.936 8.826c1.235 1.235.646.722 1.3 1.379l9.173-5.3a.93.93 0 0 0 .287-.258l2.3-3.149v2.281a4.8 4.8 0 0 0 8.208 3.393 4.8 4.8 0 0 0 9.152-2.026v-.328a19.785 19.785 0 0 0 4.878.619 24.5 24.5 0 0 0 12.745-3.94.934.934 0 1 0 -.969-1.6c-8.216 4.989-15.829 4.925-23.274-.2a.936.936 0 0 0 -.529-.164h-13.23c-3.426-.284-4.549-2.61-4.47-4.515a4.3 4.3 0 0 1 4.347-4.245c2.11.1 10.87-.3 10.87-.3 3.636-.518 7.175-1.624 9.131-3.9a.934.934 0 1 0 -1.417-1.217c-1.117 1.3-3.035 2.251-5.722 2.859l8.517-11.642 10.491 4.879a25.738 25.738 0 0 0 8.626 1.766h.044a.934.934 0 0 0 .042-1.867zm-23.102-13.943a.561.561 0 0 1 .773-.119l4.506 3.294a.567.567 0 0 1 .123.779l-3 4.1-5.404-3.946zm-9.525 39.314a2.943 2.943 0 0 1 -2.94-2.94v-2.383h5.877v2.383a2.942 2.942 0 0 1 -2.937 2.94zm10.684-2.486v.912a2.94 2.94 0 1 1 -5.88 0v-3.749h.31a24.791 24.791 0 0 0 5.57 2.838zm-18.592-2.837h.859l-1.454 1.989-7.175 4.143 1.775-8.1.675-.924a6.614 6.614 0 0 0 5.32 2.892zm-6.259-6.458a6.454 6.454 0 0 0 .121 1.524l-.228.312h-.005a3.533 3.533 0 0 1 -3.377 1.456 4.041 4.041 0 0 1 -3.187-2.3 3.393 3.393 0 0 1 .71-3.478l9.015-13.609c2.19-3.354 3.833-4.8 7.751-4.828l5.607.176-10.779 14.744a6.12 6.12 0 0 0 -5.626 6.003zm7.915-5.969 11.671-15.956 5.4 3.951-8.559 11.7a55.379 55.379 0 0 1 -8.51.306z" transform="translate(-20.001 .05)"/><path d="m4 0 3.024 8.676-6.914-.211z" fill="url(#a)" transform="matrix(-.839 -.545 .545 -.839 -8.17 46.372)"/><path d="m-12.514 45.206c-.448.428-2.316 2.223-2.111 3.58s1.089 2.579 3.2 3.255 8.174 1.7 11.6-.9-1.322-5.456-3.513-3.713-4.608 6.583 0 9.1 15.377 1.234 15.377 1.234" fill="none" stroke="#5df6c8" stroke-width="2"/></g><path d="m1 0h5a1 1 0 0 1 1 1v5a0 0 0 0 1 0 0h-7a0 0 0 0 1 0 0v-5a1 1 0 0 1 1-1z" fill="url(#a)" transform="matrix(.799 .602 -.602 .799 44.777 9.726)"/></svg>